<svg xmlns="http://www.w3.org/2000/svg" viewBox="0 0 64 64" id="bath-tube"><rect width="2" height="2" x="26.032" y="52"></rect><path d="M60 12.828a3.828 3.828 0 0 0-6.535-2.707L51.72 11.866a4.1 4.1 0 0 0-4.841.6L44.05 15.293l-1.414-1.414-1.414 1.414 8.485 8.485 1.414-1.414L49.707 20.95l2.828-2.829a3.96 3.96 0 0 0 .608-4.849l1.736-1.737A1.829 1.829 0 0 1 58 12.828V29H56v2h2v3H42a5.024 5.024 0 0 0-3.021-4.589A4.085 4.085 0 0 0 39 29a5.006 5.006 0 0 0-5-5 4.427 4.427 0 0 0-.535.033A3.965 3.965 0 0 0 29.917 22 6.01 6.01 0 0 0 24 17a5.949 5.949 0 0 0-5.225 3.068A4.5 4.5 0 0 0 18 20a5.006 5.006 0 0 0-5 5 4.876 4.876 0 0 0 .125 1.1 4.013 4.013 0 0 0-3 2.9A5.023 5.023 0 0 0 5 34H3a1 1 0 0 0-1 1v3a2 2 0 0 0 2 2v4.774a9.234 9.234 0 0 0 6 8.633V56H2v2H62V56H53V53.717a9.234 9.234 0 0 0 7-8.943V40a2 2 0 0 0 2-2V35a1 1 0 0 0-1-1H60V31h2V29H60zm-8.879 3.879l-2.828 2.828-2.829-2.828 2.829-2.828a2.047 2.047 0 0 1 2.828 0 2 2 0 0 1 0 2.828zM10 31a2.722 2.722 0 0 1 .736.112 1 1 0 0 0 1.274-.962A.981.981 0 0 0 12 30a2 2 0 0 1 2-2 1.87 1.87 0 0 1 .383.038 1 1 0 0 0 1.057-1.5A2.884 2.884 0 0 1 15 25a3 3 0 0 1 3-3 3.17 3.17 0 0 1 1.013.188 1 1 0 0 0 1.252-.592A3.995 3.995 0 0 1 28 22.946c-.007.049-.021.195-.021.244a1 1 0 0 0 1.353.936 1.968 1.968 0 0 1 2.576 1.331 1 1 0 0 0 .484.6 1.014 1.014 0 0 0 .767.078A2.905 2.905 0 0 1 34 26a3 3 0 0 1 3 3 2.941 2.941 0 0 1-.132.815 1 1 0 0 0 .757 1.253A3.007 3.007 0 0 1 40 34H7A3 3 0 0 1 10 31zm2 25V54h3.382l-1 2zm39-2v2H48.618l-1-2H51zm7-9.226A7.233 7.233 0 0 1 50.774 52H30.032v2h15.35l1 2H16.618l1-2h6.414V52H13.226A7.233 7.233 0 0 1 6 44.774V40H58zM60 38H4V36H60zM10 24a3 3 0 1 0-3 3A3 3 0 0 0 10 24zM6 24a1 1 0 1 1 1 1A1 1 0 0 1 6 24zM21 11a3 3 0 1 0-3-3A3 3 0 0 0 21 11zm0-4a1 1 0 1 1-1 1A1 1 0 0 1 21 7z"></path><path d="M40 19a3 3 0 1 0-3 3A3 3 0 0 0 40 19zm-4 0a1 1 0 1 1 1 1A1 1 0 0 1 36 19zM13 17a1 1 0 0 0 .38-.08.9.9 0 0 0 .54-.54.942.942 0 0 0 0-.76 1.032 1.032 0 0 0-.21-.33 1 1 0 0 0-.16-.12.568.568 0 0 0-.17-.09.609.609 0 0 0-.191-.06 1 1 0 0 0-.9.27 1.032 1.032 0 0 0-.21.33.942.942 0 0 0 0 .76 1.169 1.169 0 0 0 .21.33A.991.991 0 0 0 13 17zM32 12a.99.99 0 0 0 1-1 1 1 0 1 0-2 0 .99.99 0 0 0 .29.71 1.461 1.461 0 0 0 .33.22A1 1 0 0 0 32 12z"></path></svg>