<svg xmlns="http://www.w3.org/2000/svg" viewBox="0 0 512 512" id="shampoo"><path d="M406.58 110.49a7.5 7.5 0 0 0-11.16 0c-5.33 5.94-31.92 36.51-31.92 55a37.5 37.5 0 0 0 75 0c0-18.49-26.59-49.06-31.92-55ZM401 188a22.52 22.52 0 0 1-22.5-22.5c0-8 11.8-25.42 22.5-38.47 10.7 13.05 22.5 30.48 22.5 38.47A22.52 22.52 0 0 1 401 188Z"></path><path d="M248.5 162.73V134.5A27.54 27.54 0 0 0 221 107h-12.5V55h160v32.5A7.5 7.5 0 0 0 376 95h50a7.5 7.5 0 0 0 7.5-7.5v-40A47.56 47.56 0 0 0 386 0H101a27.5 27.5 0 0 0 0 55h52.5v52H141a27.54 27.54 0 0 0-27.5 27.5v28.23l-39.21 78.42a7.5 7.5 0 0 0-.79 3.35v240A27.54 27.54 0 0 0 101 512h160a27.54 27.54 0 0 0 27.5-27.5v-240a7.5 7.5 0 0 0-.79-3.35ZM383.5 80V55h35v25Zm-295-52.5A12.52 12.52 0 0 1 101 15h285a32.56 32.56 0 0 1 31.63 25H101a12.52 12.52 0 0 1-12.5-12.5Zm80 27.5h25v52h-25ZM141 122h80a12.52 12.52 0 0 1 12.5 12.5V157h-105v-22.5A12.52 12.52 0 0 1 141 122Zm-15.36 50h110.72l32.5 65H93.14ZM88.5 302h105v145h-105ZM261 497H101a12.52 12.52 0 0 1-12.5-12.5V462H201a7.5 7.5 0 0 0 7.5-7.5v-160a7.5 7.5 0 0 0-7.5-7.5H88.5v-35h185v232.5A12.52 12.52 0 0 1 261 497Z"></path><path d="M171 317a7.5 7.5 0 0 0-7.5 7.5V369a7.5 7.5 0 0 0 15 0v-44.5a7.5 7.5 0 0 0-7.5-7.5Z"></path></svg>